TITLE ""
FILE "Step2_Track16.mp3" MP3
  TRACK 01 AUDIO
    TITLE "Step2_Track16_01"
    INDEX 01 00:00:00
  TRACK 02 AUDIO
    TITLE "Step2_Track16_02"
    INDEX 01 00:00:22
  TRACK 03 AUDIO
    TITLE "Step2_Track16_03"
    INDEX 01 00:01:74
  TRACK 04 AUDIO
    TITLE "Step2_Track16_04"
    INDEX 01 00:02:60
  TRACK 05 AUDIO
    TITLE "Step2_Track16_05"
    INDEX 01 00:03:63
  TRACK 06 AUDIO
    TITLE "Step2_Track16_06"
    INDEX 01 00:04:26
  TRACK 07 AUDIO
    TITLE "Step2_Track16_07"
    INDEX 01 00:06:62
  TRACK 08 AUDIO
    TITLE "Step2_Track16_08"
    INDEX 01 00:07:28
  TRACK 09 AUDIO
    TITLE "Step2_Track16_09"
    INDEX 01 00:08:27
  TRACK 10 AUDIO
    TITLE "Step2_Track16_10"
    INDEX 01 00:08:63
  TRACK 11 AUDIO
    TITLE "Step2_Track16_11"
    INDEX 01 00:11:39
  TRACK 12 AUDIO
    TITLE "Step2_Track16_12"
    INDEX 01 00:12:13
  TRACK 13 AUDIO
    TITLE "Step2_Track16_13"
    INDEX 01 00:13:07
  TRACK 14 AUDIO
    TITLE "Step2_Track16_14"
    INDEX 01 00:13:19
  TRACK 15 AUDIO
    TITLE "Step2_Track16_15"
    INDEX 01 00:15:29
  TRACK 16 AUDIO
    TITLE "Step2_Track16_16"
    INDEX 01 00:15:71
  TRACK 17 AUDIO
    TITLE "Step2_Track16_17"
    INDEX 01 00:16:66
  TRACK 18 AUDIO
    TITLE "Step2_Track16_18"
    INDEX 01 00:17:13
  TRACK 19 AUDIO
    TITLE "Step2_Track16_19"
    INDEX 01 00:19:64
  TRACK 20 AUDIO
    TITLE "Step2_Track16_20"
    INDEX 01 00:20:19
  TRACK 21 AUDIO
    TITLE "Step2_Track16_21"
    INDEX 01 00:21:12
  TRACK 22 AUDIO
    TITLE "Step2_Track16_22"
    INDEX 01 00:21:26
  TRACK 23 AUDIO
    TITLE "Step2_Track16_23"
    INDEX 01 00:23:31
  TRACK 24 AUDIO
    TITLE "Step2_Track16_24"
    INDEX 01 00:24:03
  TRACK 25 AUDIO
    TITLE "Step2_Track16_25"
    INDEX 01 00:25:04
  TRACK 26 AUDIO
    TITLE "Step2_Track16_26"
    INDEX 01 00:25:16
  TRACK 27 AUDIO
    TITLE "Step2_Track16_27"
    INDEX 01 00:27:72
  TRACK 28 AUDIO
    TITLE "Step2_Track16_28"
    INDEX 01 00:28:36
  TRACK 29 AUDIO
    TITLE "Step2_Track16_29"
    INDEX 01 00:29:39
  TRACK 30 AUDIO
    TITLE "Step2_Track16_30"
    INDEX 01 00:29:47
  TRACK 31 AUDIO
    TITLE "Step2_Track16_31"
    INDEX 01 00:31:30
  TRACK 32 AUDIO
    TITLE "Step2_Track16_32"
    INDEX 01 00:31:62
  TRACK 33 AUDIO
    TITLE "Step2_Track16_33"
    INDEX 01 00:32:51
  TRACK 34 AUDIO
    TITLE "Step2_Track16_34"
    INDEX 01 00:32:75
  TRACK 35 AUDIO
    TITLE "Step2_Track16_35"
    INDEX 01 00:35:64
  TRACK 36 AUDIO
    TITLE "Step2_Track16_36"
    INDEX 01 00:36:20
  TRACK 37 AUDIO
    TITLE "Step2_Track16_37"
    INDEX 01 00:37:25
  TRACK 38 AUDIO
    TITLE "Step2_Track16_38"
    INDEX 01 00:37:33
  TRACK 39 AUDIO
    TITLE "Step2_Track16_39"
    INDEX 01 00:39:10
  TRACK 40 AUDIO
    TITLE "Step2_Track16_40"
    INDEX 01 00:39:36
  TRACK 41 AUDIO
    TITLE "Step2_Track16_41"
    INDEX 01 00:40:31
  TRACK 42 AUDIO
    TITLE "Step2_Track16_42"
    INDEX 01 00:40:51
  TRACK 43 AUDIO
    TITLE "Step2_Track16_43"
    INDEX 01 00:43:40
